<?xml version="1.0" encoding="utf-8"?>
<!-- Generator: Adobe Illustrator 18.1.1, SVG Export Plug-In . SVG Version: 6.00 Build 0)  -->
<!DOCTYPE svg PUBLIC "-//W3C//DTD SVG 1.1//EN" "http://www.w3.org/Graphics/SVG/1.1/DTD/svg11.dtd">
<svg version="1.1" id="Layer_1" xmlns="http://www.w3.org/2000/svg" xmlns:xlink="http://www.w3.org/1999/xlink" x="0px" y="0px"
	 viewBox="0 0 40.5 47" enable-background="new 0 0 40.5 47" xml:space="preserve">
<g>
	<g>
		<path fill="#FFFFFF" d="M36.9,18.4L31.1,8.3l-3.4-5.9L23.3,10l1.7,2.7l5.8,10.1c1.6,2.8,2.4,6,2.4,9.2c0,1.6-0.2,3.1-0.6,4.6
			c3.7-2.4,6.1-6.6,6.1-11.2C38.7,22.7,38.1,20.5,36.9,18.4z M26.5,25.4l-0.1-0.2c-0.7-1.5-1.6-3-2.5-4.4l-3.2-5.6L14.7,5l-5.8,10
			l-3.2,5.6c-1,1.5-1.9,3.1-2.6,4.7l0,0.1h0c-1.1,2.4-1.8,4.7-1.8,6.9C1.2,39.9,7.3,46,14.8,46s13.5-6.1,13.5-13.7
			C28.3,30.2,27.6,27.8,26.5,25.4L26.5,25.4z"/>
	</g>
</g>
</svg>
