<?xml version="1.0" encoding="utf-8"?>
<!-- Generator: Adobe Illustrator 18.1.1, SVG Export Plug-In . SVG Version: 6.00 Build 0)  -->
<!DOCTYPE svg PUBLIC "-//W3C//DTD SVG 1.1//EN" "http://www.w3.org/Graphics/SVG/1.1/DTD/svg11.dtd">
<svg version="1.1" id="Layer_1" xmlns="http://www.w3.org/2000/svg" xmlns:xlink="http://www.w3.org/1999/xlink" x="0px" y="0px"
	 viewBox="0 0 170 170" enable-background="new 0 0 170 170" xml:space="preserve">
<g>
	<g>
		<path fill="#72E652" d="M130.6,81.2c1.4-4.4,2.1-9.1,2.1-13.9c0-13.2-5.6-25.8-15.2-34.7L85,0.2L52.6,32.5
			c-9.7,9-15.3,21.6-15.3,34.8c0,4.8,0.7,9.5,2.1,13.9c-1.4,4.4-2.1,9.1-2.1,13.8c0,4.8,0.7,9.5,2.1,13.9c-1.4,4.4-2.1,9.1-2.1,13.8
			c0,26.2,21.4,47.5,47.7,47.5c26.3,0,47.7-21.3,47.7-47.5c0-4.7-0.7-9.4-2.1-13.8c1.4-4.4,2.1-9.1,2.1-13.9
			C132.7,90.3,132,85.7,130.6,81.2z M125.2,95c0,0.7,0,1.4-0.1,2.1c-0.5-0.7-0.9-1.4-1.4-2.1c0.5-0.7,1-1.4,1.4-2.1
			C125.2,93.6,125.2,94.3,125.2,95z M118.7,89.2c-0.4-0.4-0.7-0.7-1.1-1.1L85,55.7L52.6,88c-0.4,0.4-0.8,0.8-1.2,1.2
			c-1.6-2.5-3-5.1-4-7.9C49.5,75.4,53,70,57.8,65.6L85,38.5l27.3,27.2c4.7,4.3,8.2,9.7,10.4,15.5C121.7,84,120.3,86.7,118.7,89.2z
			 M114,95c-7.3,7.6-17.6,12.3-29,12.3c-11.4,0-21.7-4.7-29-12.3c0.6-0.6,1.1-1.2,1.7-1.7L85,66.2l27.3,27.2
			C112.9,93.9,113.4,94.5,114,95z M51.3,100.9c8.6,8.6,20.5,13.9,33.7,13.9c13.1,0,25-5.3,33.7-13.9c1.6,2.5,3,5.2,4,8
			c-5.7,15.2-20.4,26.1-37.7,26.1c-17.3,0-32-10.9-37.7-26.1C48.3,106.1,49.7,103.5,51.3,100.9z M44.8,67.3c0-11.1,4.7-21.8,13-29.4
			L85,10.8L112.3,38c8.2,7.6,12.9,18.2,12.9,29.3c0,0.7,0,1.4-0.1,2.1c-2.1-3.3-4.7-6.4-7.6-9.1L85,28L52.6,60.2
			c-3,2.7-5.6,5.9-7.7,9.2C44.8,68.7,44.8,68,44.8,67.3z M44.8,95c0-0.7,0-1.4,0.1-2.1c0.5,0.7,0.9,1.4,1.4,2.1
			c-0.5,0.7-1,1.4-1.5,2.1C44.8,96.5,44.8,95.8,44.8,95z M125.2,122.8c0,22.1-18,40-40.2,40c-22.2,0-40.2-18-40.2-40
			c0-0.7,0-1.4,0.1-2.1c8.5,13.2,23.3,21.9,40.1,21.9c16.8,0,31.7-8.7,40.2-21.9C125.2,121.3,125.2,122,125.2,122.8z"/>
	</g>
</g>
</svg>
