<?xml version="1.0" encoding="utf-8"?>
<!-- Generator: Adobe Illustrator 18.1.1, SVG Export Plug-In . SVG Version: 6.00 Build 0)  -->
<!DOCTYPE svg PUBLIC "-//W3C//DTD SVG 1.1//EN" "http://www.w3.org/Graphics/SVG/1.1/DTD/svg11.dtd">
<svg version="1.1" id="Layer_1" xmlns="http://www.w3.org/2000/svg" xmlns:xlink="http://www.w3.org/1999/xlink" x="0px" y="0px"
	 viewBox="0 0 30.9 26" enable-background="new 0 0 30.9 26" xml:space="preserve">
<path fill="#FFFFFF" d="M30.9,20c0-3.8-2.7-6.1-6-6.1c-1,0-1.7,0.3-2,0.5c0.1-4.1,3.1-8.7,7.5-9.7V0c-5.6,0.6-13.3,5.7-13.3,17.5
	c0,5.7,3.4,8.5,7.3,8.5C28.1,26,30.9,23.3,30.9,20z M13.8,20c0-3.8-2.7-6.1-6-6.1c-1,0-1.7,0.3-2,0.5c0.1-4.1,3.1-8.7,7.5-9.7V0
	C7.7,0.6,0,5.7,0,17.5C0,23.2,3.4,26,7.3,26C11,26,13.8,23.3,13.8,20z"/>
</svg>
