<?xml version="1.0" encoding="utf-8"?>
<!-- Generator: Adobe Illustrator 18.1.1, SVG Export Plug-In . SVG Version: 6.00 Build 0)  -->
<!DOCTYPE svg PUBLIC "-//W3C//DTD SVG 1.1//EN" "http://www.w3.org/Graphics/SVG/1.1/DTD/svg11.dtd">
<svg version="1.1" id="Layer_1" xmlns="http://www.w3.org/2000/svg" xmlns:xlink="http://www.w3.org/1999/xlink" x="0px" y="0px"
	 viewBox="0 0 172.3 51.3" enable-background="new 0 0 172.3 51.3" xml:space="preserve">
<g>
	<path opacity="0.5" fill="#38BBFF" d="M42.5,19.1c1.3,2.3,2,4.7,2,7.5c0,5.2-2.7,9.8-6.8,12.5c0.4-1.6,0.6-3.3,0.6-5
		c0-3.5-1-7.1-2.7-10.2l-6.4-11.2l-1.8-2.9l4.8-8.3L36,8L42.5,19.1z"/>
	<path fill="#40343F" d="M63.7,39.8h-1.6c-1.1,0-1.9-0.3-2.4-0.8c-0.6-0.6-0.8-1.4-0.8-2.4V25.5h0.9v3.1h4v0.9h-4v7.3
		c0,0.7,0.2,1.3,0.6,1.7c0.4,0.4,0.9,0.6,1.6,0.6h1.8V39.8z"/>
	<path fill="#40343F" d="M74.5,39.8h-0.9v-6.8c0-1.1-0.3-2.1-1-2.8c-0.7-0.7-1.6-1.1-2.6-1.1c-1,0-1.9,0.4-2.6,1.1
		c-0.7,0.7-1,1.7-1,2.8v6.8h-0.9V27.6v-4.5h0.9v6.9c0.9-1.2,2.1-1.8,3.6-1.8c1.3,0,2.4,0.4,3.2,1.3c0.9,0.9,1.3,2,1.3,3.4V39.8z"/>
	<path fill="#40343F" d="M88.7,34.4c0,1.5-0.6,2.8-1.7,4c-1.1,1.1-2.5,1.7-4.1,1.7c-1.7,0-3.2-0.6-4.3-1.7c-1.1-1.1-1.7-2.5-1.7-4.2
		c0-1.6,0.5-3,1.6-4.2c1.1-1.2,2.5-1.7,4.2-1.7c1,0,2,0.3,2.9,0.8c0.9,0.5,1.6,1.2,2.1,2l-8.1,5.5l-0.6-0.8l7.3-4.9
		c-0.9-1.1-2.1-1.7-3.6-1.7c-1.4,0-2.6,0.5-3.5,1.5c-0.9,1-1.4,2.2-1.4,3.6c0,1.4,0.5,2.5,1.4,3.5c0.9,1,2.1,1.5,3.5,1.5
		c1.3,0,2.5-0.5,3.5-1.4c1-0.9,1.5-2.1,1.5-3.4H88.7z"/>
	<path fill="#40343F" d="M99.4,36.7c0,1-0.3,1.8-1,2.4c-0.7,0.5-1.5,0.8-2.6,0.8H90v-2h5.9c0.9,0,1.4-0.4,1.4-1.1
		c0-0.5-0.8-1.1-2.5-1.6c-1.7-0.5-2.9-1-3.6-1.4c-0.7-0.4-1.1-1.1-1.1-2.3c0-1,0.3-1.8,1-2.3c0.7-0.5,1.6-0.8,2.9-0.8h4.9v2h-5.3
		c-0.5,0-0.9,0.1-1.1,0.2c-0.2,0.2-0.3,0.4-0.3,0.8c0,0.5,0.8,1,2.4,1.5c1.6,0.5,2.8,0.9,3.6,1.4C99,34.7,99.4,35.5,99.4,36.7"/>
	<path fill="#40343F" d="M112.4,34.1c0,1.7-0.6,3.1-1.8,4.3c-1.2,1.1-2.6,1.7-4.2,1.7c-1.6,0-3-0.6-4.2-1.7
		c-1.2-1.1-1.8-2.5-1.8-4.3c0-1.7,0.6-3.2,1.8-4.3c1.2-1.1,2.6-1.7,4.2-1.7c1.6,0,3,0.6,4.2,1.7C111.9,31,112.4,32.4,112.4,34.1
		 M110.2,34.1c0-1.2-0.3-2.1-1-2.9c-0.7-0.7-1.6-1.1-2.7-1.1c-1.1,0-2,0.4-2.7,1.1c-0.7,0.7-1,1.7-1,2.9c0,1.2,0.3,2.1,1,2.9
		c0.7,0.7,1.6,1.1,2.7,1.1c1.1,0,2-0.4,2.7-1.1C109.9,36.3,110.2,35.3,110.2,34.1"/>
	<rect x="114.8" y="23.1" fill="#40343F" width="2.1" height="16.7"/>
	<path fill="#40343F" d="M129.3,35.1c0,1.5-0.5,2.7-1.4,3.6c-0.9,0.9-2.1,1.4-3.5,1.4c-1.4,0-2.6-0.5-3.5-1.4
		c-0.9-0.9-1.4-2.1-1.4-3.6v-6.7h2.1v6.7c0,0.9,0.3,1.6,0.8,2.1c0.5,0.6,1.2,0.9,2,0.9c0.8,0,1.4-0.3,2-0.8c0.5-0.6,0.8-1.3,0.8-2.2
		v-6.7h2.1V35.1z"/>
	<path fill="#40343F" d="M138,39.8h-2.8c-1.1,0-1.9-0.3-2.5-1c-0.6-0.7-0.9-1.6-0.9-2.7V25.5h2.1v2.9h4.1v2h-4.1v6
		c0,0.5,0.1,0.9,0.4,1.1c0.2,0.2,0.6,0.3,1.2,0.3h2.5V39.8z"/>
	<path fill="#40343F" d="M142.9,25.8c0,0.4-0.1,0.7-0.3,0.9c-0.2,0.2-0.5,0.4-0.9,0.4c-0.4,0-0.7-0.1-0.9-0.4
		c-0.2-0.2-0.3-0.5-0.3-0.9c0-0.4,0.1-0.7,0.3-0.9c0.2-0.2,0.5-0.4,0.9-0.4c0.4,0,0.7,0.1,0.9,0.4C142.8,25.2,142.9,25.5,142.9,25.8
		 M142.7,39.8h-2.1V28.4h2.1V39.8z"/>
	<path fill="#40343F" d="M157.6,34.1c0,1.7-0.6,3.1-1.8,4.3c-1.2,1.1-2.6,1.7-4.2,1.7c-1.6,0-3-0.6-4.2-1.7
		c-1.2-1.1-1.8-2.5-1.8-4.3c0-1.7,0.6-3.2,1.8-4.3c1.2-1.1,2.6-1.7,4.2-1.7c1.6,0,3,0.6,4.2,1.7C157,31,157.6,32.4,157.6,34.1
		 M155.4,34.1c0-1.2-0.3-2.1-1-2.9c-0.7-0.7-1.6-1.1-2.7-1.1c-1.1,0-2,0.4-2.7,1.1c-0.7,0.7-1,1.7-1,2.9c0,1.2,0.3,2.1,1,2.9
		c0.7,0.7,1.6,1.1,2.7,1.1c1.1,0,2-0.4,2.7-1.1C155,36.3,155.4,35.3,155.4,34.1"/>
	<path fill="#40343F" d="M169.1,39.8h-2.1v-6.7c0-0.9-0.3-1.6-0.8-2.1c-0.5-0.6-1.2-0.9-2-0.9c-0.8,0-1.4,0.3-2,0.8
		c-0.5,0.6-0.8,1.3-0.8,2.2v6.7h-2.1v-6.7c0-1.5,0.5-2.7,1.4-3.6c0.9-0.9,2.1-1.4,3.5-1.4c1.4,0,2.6,0.5,3.5,1.4
		c0.9,0.9,1.4,2.1,1.4,3.6V39.8z"/>
	<rect x="90.1" y="43.9" fill="#38BBFF" width="0.5" height="4.6"/>
	<polygon fill="#38BBFF" points="96.3,43.9 94.4,48.5 93.8,48.5 92,43.9 92.5,43.9 94.1,47.9 95.7,43.9 	"/>
	<polygon fill="#38BBFF" points="103.6,43.9 103.6,48.5 103.1,48.5 103.1,46.4 100.4,46.4 100.4,48.5 99.9,48.5 99.9,43.9 
		100.4,43.9 100.4,45.9 103.1,45.9 103.1,43.9 	"/>
	<polygon fill="#38BBFF" points="106.3,49.9 105.7,49.9 106.4,48.4 105,45 105.5,45 106.7,47.9 107.8,45 108.4,45 	"/>
	<path fill="#38BBFF" d="M112.3,45.6v-2h0.5v4.9h-0.5v-0.6c-0.3,0.4-0.7,0.6-1.2,0.6c-1,0-1.7-0.8-1.7-1.8c0-1,0.7-1.8,1.7-1.8
		C111.6,44.9,112,45.2,112.3,45.6 M112.3,46.7c0-0.7-0.4-1.3-1.2-1.3c-0.8,0-1.2,0.6-1.2,1.3c0,0.7,0.5,1.3,1.2,1.3
		C111.9,48.1,112.3,47.5,112.3,46.7"/>
	<path fill="#38BBFF" d="M116.3,44.9v0.5h-0.1c-0.8,0-1.3,0.7-1.3,1.5v1.5h-0.5V45h0.5v0.9C115,45.6,115.4,44.9,116.3,44.9
		L116.3,44.9z"/>
	<path fill="#38BBFF" d="M120.2,45.6V45h0.5v3.5h-0.5v-0.6c-0.3,0.4-0.7,0.6-1.2,0.6c-1,0-1.7-0.8-1.7-1.8c0-1,0.7-1.8,1.7-1.8
		C119.6,44.9,120,45.2,120.2,45.6 M120.3,46.7c0-0.7-0.4-1.3-1.2-1.3c-0.8,0-1.2,0.6-1.2,1.3c0,0.7,0.5,1.3,1.2,1.3
		C119.8,48.1,120.3,47.5,120.3,46.7"/>
	<polygon fill="#38BBFF" points="122.8,48.5 122.8,45.5 122.1,45.5 122.1,45 122.8,45 122.8,43.8 123.3,43.8 123.3,45 124.1,45 
		124.1,45.5 123.3,45.5 123.3,48.5 	"/>
	<path fill="#38BBFF" d="M126,44.4h-0.6v-0.7h0.6V44.4z M125.4,45h0.5v3.5h-0.5V45z"/>
	<path fill="#38BBFF" d="M130.9,46.7c0,1-0.7,1.8-1.7,1.8c-1.1,0-1.7-0.8-1.7-1.8c0-1,0.7-1.8,1.7-1.8
		C130.2,44.9,130.9,45.7,130.9,46.7 M130.3,46.7c0-0.7-0.4-1.3-1.2-1.3c-0.8,0-1.2,0.6-1.2,1.3c0,0.7,0.4,1.3,1.2,1.3
		C129.9,48.1,130.3,47.5,130.3,46.7"/>
	<path fill="#38BBFF" d="M132.8,45v0.5c0.3-0.3,0.6-0.6,1.2-0.6c0.7,0,1.4,0.5,1.4,1.5v2h-0.5v-2c0-0.6-0.4-1-1-1
		c-0.6,0-1,0.4-1,1.1v2h-0.5V45H132.8z"/>
	<polygon fill="#38BBFF" points="142.6,44.4 141,44.4 141,48.5 140.5,48.5 140.5,44.4 138.9,44.4 138.9,43.9 142.6,43.9 	"/>
	<path fill="#38BBFF" d="M144.5,43.6v1.9c0.3-0.3,0.6-0.6,1.2-0.6c0.7,0,1.4,0.5,1.4,1.5v2h-0.5v-2c0-0.6-0.4-1-1-1
		c-0.6,0-1,0.4-1,1.1v2H144v-4.9H144.5z"/>
	<path fill="#38BBFF" d="M151.2,47.5h0.6c-0.2,0.6-0.8,1.1-1.6,1.1c-1.1,0-1.8-0.8-1.8-1.8c0-1,0.7-1.8,1.7-1.8
		c1.1,0,1.7,0.8,1.7,1.8v0.2H149c0.1,0.6,0.5,1.1,1.2,1.1C150.7,48.1,151,47.8,151.2,47.5 M149,46.5h2.4c-0.1-0.6-0.5-1-1.2-1
		C149.5,45.4,149.1,45.9,149,46.5"/>
	<path fill="#38BBFF" d="M155.1,44.9v0.5h-0.1c-0.8,0-1.3,0.7-1.3,1.5v1.5h-0.5V45h0.5v0.9C153.9,45.6,154.2,44.9,155.1,44.9
		L155.1,44.9z"/>
	<path fill="#38BBFF" d="M159.1,45.6V45h0.5v3.5h-0.5v-0.6c-0.3,0.4-0.7,0.6-1.2,0.6c-1,0-1.7-0.8-1.7-1.8c0-1,0.7-1.8,1.7-1.8
		C158.4,44.9,158.8,45.2,159.1,45.6 M159.1,46.7c0-0.7-0.4-1.3-1.2-1.3s-1.2,0.6-1.2,1.3c0,0.7,0.5,1.3,1.2,1.3
		S159.1,47.5,159.1,46.7"/>
	<path fill="#38BBFF" d="M161.8,47.9v1.9h-0.5V45h0.5v0.6c0.3-0.4,0.7-0.6,1.2-0.6c1,0,1.7,0.8,1.7,1.8c0,1-0.7,1.8-1.7,1.8
		C162.4,48.5,162,48.3,161.8,47.9 M161.7,46.7c0,0.7,0.4,1.3,1.2,1.3c0.8,0,1.2-0.6,1.2-1.3c0-0.7-0.5-1.3-1.2-1.3
		C162.2,45.4,161.7,46,161.7,46.7"/>
	<polygon fill="#38BBFF" points="167,49.9 166.5,49.9 167.1,48.4 165.7,45 166.3,45 167.4,47.9 168.5,45 169.1,45 	"/>
	<path fill="#38BBFF" d="M31,26.9L31,26.9l-0.1-0.3c-0.8-1.6-1.7-3.3-2.8-4.9l-3.5-6.2L18,4.3l-6.4,11.1l-3.5,6.2
		C7,23.3,6,25.1,5.2,26.8l0,0.1h0c-1.2,2.6-2,5.2-2,7.6c0,8.4,6.7,15.1,14.9,15.1S33,42.9,33,34.5C33,32.2,32.2,29.5,31,26.9z"/>
</g>
</svg>
