<?xml version="1.0" encoding="utf-8"?>
<!-- Generator: Adobe Illustrator 18.1.1, SVG Export Plug-In . SVG Version: 6.00 Build 0)  -->
<!DOCTYPE svg PUBLIC "-//W3C//DTD SVG 1.1//EN" "http://www.w3.org/Graphics/SVG/1.1/DTD/svg11.dtd">
<svg version="1.1" id="Layer_1" xmlns="http://www.w3.org/2000/svg" xmlns:xlink="http://www.w3.org/1999/xlink" x="0px" y="0px"
	 viewBox="0 0 170 170" enable-background="new 0 0 170 170" xml:space="preserve">
<g>
	<g>
		<path fill="#72E652" d="M133.3,48.1L85,0L36.8,47.9C22.4,61.2,14.2,80,14.2,99.5c0,38.8,31.8,70.5,70.8,70.5s70.8-31.6,70.8-70.5
			C155.8,80,147.6,61.2,133.3,48.1z M85,158.7c-32.8,0-59.4-26.5-59.4-59.1c0-16.4,6.9-32.2,19.2-43.5L85,16l40.4,40.2
			c12.1,11.2,19,27,19,43.3C144.4,132.1,117.8,158.7,85,158.7z M79.9,112.4L61.4,94l-8.1,8l27.7,27.6l42-54.9l-9.1-6.9L79.9,112.4z"
			/>
	</g>
</g>
</svg>
