<?xml version="1.0" encoding="utf-8"?>
<!-- Generator: Adobe Illustrator 18.1.1, SVG Export Plug-In . SVG Version: 6.00 Build 0)  -->
<!DOCTYPE svg PUBLIC "-//W3C//DTD SVG 1.1//EN" "http://www.w3.org/Graphics/SVG/1.1/DTD/svg11.dtd">
<svg version="1.1" id="Layer_1" xmlns="http://www.w3.org/2000/svg" xmlns:xlink="http://www.w3.org/1999/xlink" x="0px" y="0px"
	 viewBox="0 0 170 170" enable-background="new 0 0 170 170" xml:space="preserve">
<g>
	<g>
		<path fill="#72E652" d="M132.8,48.1L85,0L37.4,47.9C23.2,61.2,15,80,15,99.5c0,38.8,31.4,70.5,70,70.5c38.6,0,70-31.6,70-70.5
			C155,80,146.8,61.2,132.8,48.1z M85,158.7c-32.4,0-58.8-26.5-58.8-59.2c0-16.4,6.9-32.2,19-43.5L85,16l40,40.2
			c12,11.2,18.8,27,18.8,43.4C143.8,132.2,117.4,158.7,85,158.7z M90.6,69.3H79.4v23.3H56.3v11.3h23.1v23.3h11.2v-23.3h23.1V92.6
			H90.6V69.3z"/>
	</g>
</g>
</svg>
