<?xml version="1.0" encoding="utf-8"?>
<!-- Generator: Adobe Illustrator 18.1.1, SVG Export Plug-In . SVG Version: 6.00 Build 0)  -->
<!DOCTYPE svg PUBLIC "-//W3C//DTD SVG 1.1//EN" "http://www.w3.org/Graphics/SVG/1.1/DTD/svg11.dtd">
<svg version="1.1" id="Layer_1" xmlns="http://www.w3.org/2000/svg" xmlns:xlink="http://www.w3.org/1999/xlink" x="0px" y="0px"
	 viewBox="0 0 170 170" enable-background="new 0 0 170 170" xml:space="preserve">
<g>
	<g>
		<path fill="#72E652" d="M115.1,19.6c-16,0-30.4,6.9-40.5,17.8L54.9,17.7L17.6,55.1C6.4,65.5,0,80.2,0,95.4c0,30.3,24.6,55,54.9,55
			c16,0,30.4-6.9,40.5-17.8l19.7,19.7l37.4-37.4c11.2-10.4,17.6-25.1,17.6-40.3C170,44.2,145.4,19.6,115.1,19.6z M54.9,141.6
			c-25.4,0-46.1-20.7-46.1-46.1c0-12.8,5.4-25.1,14.9-33.9l31.2-31.2l14.2,14.2c-5.7,8.7-9,19-9,30.1c0,15.2,6.4,29.9,17.5,40.2
			l11.6,11.6C80.7,135.7,68.5,141.6,54.9,141.6z M75.5,50.9l10.8,10.8c9.4,8.7,14.8,21,14.8,33.8c0,8.7-2.4,16.8-6.6,23.7
			l-10.8-10.8C74.3,99.7,69,87.3,69,74.6C69,65.9,71.4,57.8,75.5,50.9z M146.3,108.5l-31.2,31.3l-14.2-14.2c5.7-8.7,9-19,9-30.1
			c0-15.2-6.4-29.9-17.5-40.2L80.8,43.7c8.4-9.4,20.7-15.2,34.2-15.2c25.4,0,46.1,20.7,46.1,46.1C161.2,87.3,155.8,99.7,146.3,108.5
			z"/>
	</g>
</g>
</svg>
